<svg width="489" height="90" viewBox="0 0 489 90" fill="none" xmlns="http://www.w3.org/2000/svg">
<path d="M15.4336 71.0664C15.4336 79.8555 15.5898 85.5 15.9023 88H0.609375V26.7695H15.4336V32.043C20.7852 27.7461 26.2734 25.5977 31.8984 25.5977C38.5391 25.5977 43.3633 28.4688 46.3711 34.2109C49.3789 31.125 51.8789 29.0938 53.8711 28.1172C57.1914 26.4375 60.5117 25.5977 63.832 25.5977C67.1914 25.5977 70.043 26.1641 72.3867 27.2969C74.7305 28.4297 76.6641 30.0312 78.1875 32.1016C81.2734 36.2812 82.8164 42.0234 82.8164 49.3281V72.6484C82.8164 79.25 82.9141 83.2148 83.1094 84.543C83.3047 85.8711 83.5586 86.7305 83.8711 87.1211C84.2227 87.5117 84.5156 87.8633 84.75 88.1758L84.6328 88.4102C81.5078 88.1367 79.2031 88 77.7188 88H73.3242C71.8789 88 70.1016 88.0586 67.9922 88.1758V56.4766C67.9922 47.3359 66.5859 41.9062 63.7734 40.1875C62.8359 39.6406 61.7227 39.3672 60.4336 39.3672C59.1836 39.3672 58.0703 39.5234 57.0938 39.8359C56.1172 40.1094 55.1992 40.5781 54.3398 41.2422C52.8945 42.2969 51.2539 44.3672 49.418 47.4531C49.457 47.7656 49.4766 48.0781 49.4766 48.3906C49.4766 48.7031 49.4766 53.8594 49.4766 63.8594C49.4766 73.8594 49.7109 81.9062 50.1797 88C46.8594 88 44.0273 88 41.6836 88C39.3789 88 37.1719 88.0586 35.0625 88.1758V56.418C35.0625 50.0508 34.6719 45.9102 33.8906 43.9961C33.1484 42.082 32.3477 40.832 31.4883 40.2461C30.6289 39.6602 29.5742 39.3672 28.3242 39.3672C23.168 39.3672 18.8711 41.8477 15.4336 46.8086V71.0664ZM96.8789 57.8828C96.8789 53.3125 97.6602 49.0742 99.2227 45.168C100.785 41.2617 102.992 37.8438 105.844 34.9141C111.938 28.7031 119.906 25.5977 129.75 25.5977C138.07 25.5977 144.75 28.3516 149.789 33.8594C154.75 39.1719 157.23 45.8516 157.23 53.8984C157.23 56.9844 156.996 59.0938 156.527 60.2266C152.621 61.3203 144.672 61.8672 132.68 61.8672H112.055C113.07 66.0469 115.434 69.3086 119.145 71.6523C122.855 73.957 127.68 75.1094 133.617 75.1094C139.828 75.1094 145.16 73.9961 149.613 71.7695C150.785 71.1836 151.664 70.6367 152.25 70.1289C152.172 71.7695 152.074 73.4492 151.957 75.168L151.312 84.3086C148.344 86.3398 143.539 87.7461 136.898 88.5273C134.945 88.7617 133.07 88.8789 131.273 88.8789C121.352 88.8789 113.148 85.9883 106.664 80.207C100.141 74.3867 96.8789 66.9453 96.8789 57.8828ZM141.645 50.5C140.043 42.1016 135.473 37.9023 127.934 37.9023C121.996 37.9023 117.484 40.4609 114.398 45.5781C113.461 47.1406 112.738 48.8594 112.23 50.7344C113.168 50.7734 114.32 50.8125 115.688 50.8516H120.023C121.469 50.8906 122.855 50.9102 124.184 50.9102H127.523C129.516 50.9102 131.469 50.8906 133.383 50.8516L138.188 50.6758C139.477 50.6367 140.629 50.5781 141.645 50.5ZM212.016 84.7188C207.055 87.4922 202.094 88.8789 197.133 88.8789C192.172 88.8789 187.836 88.0977 184.125 86.5352C180.414 84.9727 177.25 82.8242 174.633 80.0898C169.242 74.4648 166.547 67.1602 166.547 58.1758C166.547 48.8789 169.672 41.1445 175.922 34.9727C182.211 28.7227 190.258 25.5977 200.062 25.5977C203.07 25.5977 206.02 25.9883 208.91 26.7695V0.695312H223.266V63.332C223.266 68.5273 223.5 71.9258 223.969 73.5273C224.477 75.1289 225.023 76.3008 225.609 77.043C226.234 77.7852 227.016 78.4883 227.953 79.1523L216.938 88.8789C214.906 87.7852 213.266 86.3984 212.016 84.7188ZM199.887 75.4023C203.168 75.4023 206.176 74.7773 208.91 73.5273V41.0664C206.176 39.9336 203.207 39.3672 200.004 39.3672C196.801 39.3672 194.047 39.7969 191.742 40.6562C189.477 41.5156 187.523 42.707 185.883 44.2305C182.445 47.4336 180.727 51.5938 180.727 56.7109C180.727 62.2969 182.289 66.75 185.414 70.0703C188.773 73.625 193.598 75.4023 199.887 75.4023ZM247.348 88.4688C243.988 88.1562 240.062 88 235.57 88H230.941L256.43 16.5742C257.562 13.3711 258.129 11.5156 258.129 11.0078C258.129 10.4609 258.109 10.1289 258.07 10.0117L258.129 9.89453C260.668 10.0117 263.363 10.0703 266.215 10.0703C268.559 10.0703 271.371 10.0312 274.652 9.95312L274.711 10.0703C274.633 10.2266 274.594 10.4414 274.594 10.7148C274.594 11.457 275.18 13.4297 276.352 16.6328L302.367 88.1758C301.586 88.1367 300.668 88.1172 299.613 88.1172C299.613 88.1172 298.598 88.0781 296.566 88C295.59 88 294.711 88 293.93 88H284.848L279.34 71.125H252.855L247.348 88.4688ZM274.77 57.0625L265.922 29.8164L257.309 57.0625H274.77ZM313.676 9.83594C317.582 9.99219 319.945 10.0703 320.766 10.0703H324.984C327.055 10.0703 328.715 9.91406 329.965 9.60156L329.906 88H313.676V9.83594ZM370.922 89.4648C364.594 89.4648 358.637 88.957 353.051 87.9414V9.54297C358.207 8.91797 364.184 8.60547 370.98 8.60547C377.816 8.60547 383.988 9.54297 389.496 11.418C395.043 13.2539 399.672 15.8906 403.383 19.3281C410.883 26.2031 414.633 35.832 414.633 48.2148C414.633 62.082 410.453 72.6094 402.094 79.7969C394.594 86.2422 384.203 89.4648 370.922 89.4648ZM368.285 75.168C370.824 75.6367 373.363 75.8711 375.902 75.8711C378.441 75.8711 381.176 75.3828 384.105 74.4062C387.035 73.3906 389.574 71.8281 391.723 69.7188C396.332 65.2656 398.637 58.7812 398.637 50.2656C398.637 36.2812 393.539 27.6875 383.344 24.4844C379.984 23.4297 376.098 22.9023 371.684 22.9023H370.102C369.516 22.9023 368.91 22.9219 368.285 22.9609V75.168ZM442.348 58.7031C439.379 58.7031 436.957 58.8008 435.082 58.9961L435.258 44.5234C436.117 44.7578 438.695 44.875 442.992 44.875H454.828V33.625C454.828 29.3281 454.711 26.75 454.477 25.8906L468.949 25.7148C468.754 27.5898 468.656 30.0117 468.656 32.9805V44.875H480.434C484.691 44.875 487.27 44.7578 488.168 44.5234L488.344 58.9961C486.469 58.8008 484.047 58.7031 481.078 58.7031H468.656V71.7109C468.656 74.6797 468.754 77.1016 468.949 78.9766L454.477 78.8008C454.711 77.9023 454.828 75.3242 454.828 71.0664V58.7031H442.348Z" fill="white"/>
</svg>
